<svg xmlns="http://www.w3.org/2000/svg" viewBox="0 0 512 512"><rect width="512" height="512" fill="#171923" rx="112.64"/><g fill="none"><path stroke="#6366f1" stroke-width="7.168" d="M113.932 231.135c11.133-21.734 19.53-53.423 43.54-86.077m-49.815 88.108c21.75-31.997 37.483-60.465 45.492-82.214m-30.013 87.606c18.306-34.284 31.652-70.804 64.086-125.724m-65.42 128.015c27.554-50.206 52.89-96.57 68.142-128.272m-81.65 172.174c42.467-65.12 75.867-130.545 98.952-177.572M111.82 282.21c27.655-59.97 61.576-118.92 96.814-177.07m-92.456 198.227c38.518-84.028 86.507-165.153 112.515-210.028M116.23 303.025c28.767-62.93 62.084-122.836 110.397-207.798M125.905 318.322c21.07-46.414 44.043-96.903 114.824-225.24M121.453 317.898C153.577 262.2 187.65 206.137 242.715 93.906M132.532 332.8c21.761-51.433 46.7-98.677 123.6-241.66m-125.333 242.95c36.013-62.483 67.942-124.95 127.63-242.371M137.659 348.325c31.761-69.457 70.116-135.663 135.531-255.347M138.315 346.897c42.756-76.5 81.554-156.494 134.524-254.54M142.557 361.838c49.189-91.124 95.157-172.804 144.838-266.129M146.44 359.71c53.982-101.808 107.146-199.254 138.737-263.105m-131.86 277.307c57.798-107.898 114.74-219.698 146.256-277.138M153.53 373.791c39.057-76.394 80.26-152.728 145.575-277.14M164.761 380.854c54.355-110.942 112.655-223.559 148.304-278.593m-150.01 280.823c38.031-75.512 79.04-152.29 150.31-283.282M171.6 394.739c33.943-68.846 66.537-137.354 155.104-287.221M171.302 390.494c55.572-106.917 113.333-213.623 152.818-283.19M179.782 400.616c37.849-68.39 78.545-142.408 155.194-284.85M182.132 400.51c47.172-93.212 97.14-186.443 151.297-283.736m-142.46 293.192c45.626-88.353 91.39-173.942 152.564-287.777M193.985 407.22c38.304-83.29 80.07-163.653 151.92-283.533M203.969 413.332c57.985-102.422 114.153-205.956 151.9-280.131m-149 280.196c39.35-71.303 76.378-138.41 148.1-283.086M215.536 419.746C258.4 354.2 295.158 286.029 365.267 143.691M216.563 416.677c49.461-81.013 92.15-161.61 148.382-276.355M230.342 423.279c58.592-112.743 114.087-219.985 145.112-273.447M230.26 421.26c37.948-66.78 76.59-136.466 144.168-268.836m-131.884 272.7c27.965-57.68 59.956-114.49 139.465-259.455M244.792 424.993c46.553-85.784 89.242-168.663 137.076-259.23m-121.98 262.505c27.936-67.776 63.048-129.8 132.34-252.404M256.878 424.836c41.743-81.81 86.329-164.431 132.22-245.51M270.162 424.207c38.696-64.453 78.587-138.241 127.363-229.456M272.06 426.127c49.575-84.037 94.182-166.535 124.138-234.424M289.536 422.425c24.03-50.444 51.829-95.71 111.162-213.168m-111.81 214.547c45.117-85.681 89.865-169.607 112.917-217.683m-92.567 212.043c18.776-52.295 52.479-103.219 92.793-184.82m-96.195 186.477c36.859-69.926 72.106-141.223 99.227-190.183m-80.79 184.543c13.763-38.45 36.205-77.726 81.131-152.992m-86.291 155.504c22.302-40.707 44.717-84.248 88.54-161.574m-55.766 131.639c11.626-21.088 27.53-51.44 49.658-96.105m-52.429 97.169c11.04-21.37 24.96-42.815 50.587-92.204"/>
</g><text x="256" y="315" fill="#f7f3ea" font-family="Arial, sans-serif" font-size="186" font-weight="800" text-anchor="middle">+1</text></svg>
