<svg xmlns="http://www.w3.org/2000/svg" viewBox="0 0 192 192"><rect width="192" height="192" fill="#171923" rx="42.24"/><g fill="none">
<path stroke="#6366f1" stroke-width="2.688" d="M40.546 84.09C51.699 71.26 56.073 61.317 65.78 45.573M44.094 81.725c10.12-12.34 15.049-26.223 19.674-33.25m-17.936 40.13c.252-3.247 9.529-16.825 30.482-48.883M43.871 93.946c12.92-22.475 20.432-38.17 27.54-53.6M45.584 107.41c5.347-15.433 17.244-37.104 38.543-71.615M44.28 105.352c13.926-27.926 26.323-53.047 35.92-66.55M47.639 115.03c6.803-21.721 22.54-39.806 38.589-76.643m-40.175 74.745c9.434-16.495 18.067-33.709 42.27-76.776M44.36 114.245c16.096-23.6 31.86-53.056 50.964-74.954m-46.09 78.138c15.399-28.945 32.205-63.013 42.624-82.03m-37.978 85.59c14.134-33.057 37.154-67.911 47.63-90.492M49.72 126.736C69.95 88.171 87.747 51.063 98.57 33.306m-48.709 93.88c16.858-17.082 35.449-48.41 57.177-98.498M51.946 132.412C68.742 94.305 89.009 55.37 104.799 32.209M55.528 138.45c12.103-29.12 26.766-51.105 55.125-104.737m-54.04 102.362c17.506-33.6 36.608-70.401 53.287-100.509M60.405 144.86c17.57-37.444 27.969-65.148 54.263-105.91m-54.31 101.914c12.158-28.327 31.028-56.877 53.481-101.466M63.431 146.346c8.433-26.485 26.494-60.288 57.836-101.968M62.969 144.506c18.029-32.55 33.034-63.296 54.235-105.042M67.486 143.698c13.496-24.04 22.963-53.554 51.215-96.977m-53.075 99.7c20.015-37.248 38.506-70.804 58.689-104.546M72.992 148.97c20.026-36.763 40.47-71.071 54.225-107.054m-54.6 110.292c20.29-43.042 40.925-81.769 54.247-105.74m-56.3 107.166c19.012-32.229 38.112-70.092 59.078-106.67M74.5 153.492c23.8-35.365 43.157-73.778 56.114-103.959M78.138 157.453C96.914 121.041 117.335 79.76 137.725 53.1M80.141 155.272c14.368-29.557 30.828-59.515 52.91-102.603M82.23 160.393c17.877-43.916 39.73-80.213 56.687-101.31m-55.225 98.456c12.671-21.765 24.649-45.151 56.182-102.566M90.322 160.711c6.2-20.096 20.275-47.72 51.032-102.872m-51.472 102.8c13.815-21.298 25.222-46.02 53.42-100.477M90.186 163.584c11.248-18.944 20.916-42.137 53.211-94.741M94.66 159.188c8.749-25.045 21.825-45.556 49.053-95.75m-47.895 93.743c14.675-14.836 21.857-37.337 55.942-93.149M99.632 160.64c15.688-30.216 32.262-62.973 49.852-92.339m-42.723 96.987c7.496-30.072 24.456-50.21 46.496-91.134m-47.344 87.442c12.443-29.68 28.708-58.769 42.16-84.622m-38.97 77.781c14.875-21.253 26.502-43.081 43.911-70.061m-42.995 74.64c15.684-21.094 25.514-45.826 42.293-73.31m-34.675 73.404c4.929-11.5 13.531-28 29.867-64.685m-28.552 60.692c9.604-18.08 22.315-38.494 31.823-55.72m-20.62 49.998c-.807-8.685 3.634-18.192 11.7-33.802M125.8 151.432c6.856-10.147 14.52-26.8 20.593-32.822"/>
</g>
<text x="96" y="118" fill="#f7f3ea" font-family="Arial, sans-serif" font-size="70" font-weight="800" text-anchor="middle">+1</text></svg>
